<svg xmlns="http://www.w3.org/2000/svg" xmlns:xlink="http://www.w3.org/1999/xlink" viewBox="0 0 614.01 73.83"><defs><style>.cls-1,.cls-22{fill:#262626;}.cls-2{fill:url(#linear-gradient);}.cls-3{fill:url(#linear-gradient-2);}.cls-4{fill:url(#linear-gradient-3);}.cls-5{fill:url(#linear-gradient-4);}.cls-6{fill:url(#linear-gradient-5);}.cls-7{fill:url(#linear-gradient-6);}.cls-8{fill:url(#linear-gradient-7);}.cls-9{fill:url(#linear-gradient-8);}.cls-10{fill:url(#linear-gradient-9);}.cls-11{fill:url(#linear-gradient-10);}.cls-12{fill:url(#linear-gradient-11);}.cls-13{fill:url(#linear-gradient-12);}.cls-14{fill:url(#linear-gradient-13);}.cls-15{fill:url(#linear-gradient-14);}.cls-16{fill:url(#linear-gradient-15);}.cls-17{fill:url(#linear-gradient-16);}.cls-18{fill:url(#linear-gradient-17);}.cls-19{fill:url(#linear-gradient-18);}.cls-20{fill:url(#linear-gradient-19);}.cls-21{fill:url(#linear-gradient-20);}.cls-22{stroke:#999897;stroke-miterlimit:10;}.cls-23{font-size:3.26px;fill:#fff;font-family:ArialNarrow, Arial Narrow;}.cls-24{fill:#231f20;}</style><linearGradient id="linear-gradient" x1="559.5" y1="70.64" x2="568.2" y2="61.94" gradientUnits="userSpaceOnUse"><stop offset="0" stop-color="#999897"/><stop offset="0.29" stop-color="#6d6d6c"/><stop offset="0.6" stop-color="#474646"/><stop offset="0.85" stop-color="#2f2f2f"/><stop offset="1" stop-color="#262626"/></linearGradient><linearGradient id="linear-gradient-2" x1="557.2" y1="71.01" x2="575.84" y2="49.56" gradientUnits="userSpaceOnUse"><stop offset="0" stop-color="#999897"/><stop offset="0.21" stop-color="#717070"/><stop offset="0.43" stop-color="#515050"/><stop offset="0.64" stop-color="#393939"/><stop offset="0.83" stop-color="#2b2b2b"/><stop offset="1" stop-color="#262626"/></linearGradient><linearGradient id="linear-gradient-3" x1="562.79" y1="72.28" x2="569.44" y2="62.85" gradientTransform="translate(529.87 635.13) rotate(-94.92)" gradientUnits="userSpaceOnUse"><stop offset="0" stop-color="#999897"/><stop offset="0.12" stop-color="#888786"/><stop offset="0.53" stop-color="#535352"/><stop offset="0.83" stop-color="#323232"/><stop offset="1" stop-color="#262626"/></linearGradient><linearGradient id="linear-gradient-4" x1="564.77" y1="72.54" x2="566.13" y2="61.02" gradientTransform="translate(797.23 582.03) rotate(-123.04)" xlink:href="#linear-gradient-3"/><linearGradient id="linear-gradient-5" x1="563.55" y1="72.06" x2="569.44" y2="62.48" gradientTransform="translate(1038.69 362.19) rotate(-156.85)" xlink:href="#linear-gradient"/><linearGradient id="linear-gradient-6" x1="563.16" y1="72.38" x2="569.81" y2="62.95" gradientTransform="translate(1116.48 36.93) rotate(168.51)" xlink:href="#linear-gradient-3"/><linearGradient id="linear-gradient-7" x1="561.71" y1="72.9" x2="570.42" y2="64.2" gradientTransform="translate(1000.74 -268.41) rotate(134.7)" xlink:href="#linear-gradient"/><linearGradient id="linear-gradient-8" x1="565" y1="72.8" x2="566.36" y2="61.28" gradientTransform="translate(747.61 -453.59) rotate(102.25)" xlink:href="#linear-gradient-3"/><linearGradient id="linear-gradient-9" x1="563.59" y1="72.41" x2="569.48" y2="62.83" gradientTransform="translate(421.51 -470.57) rotate(68.44)" xlink:href="#linear-gradient"/><linearGradient id="linear-gradient-10" x1="563.44" y1="72.68" x2="569.32" y2="63.09" gradientTransform="translate(215.65 520.64) rotate(-60.28)" xlink:href="#linear-gradient"/><linearGradient id="linear-gradient-11" x1="562.76" y1="72.3" x2="569.41" y2="62.87" xlink:href="#linear-gradient-3"/><linearGradient id="linear-gradient-12" x1="564.76" y1="72.5" x2="566.12" y2="60.98" gradientTransform="translate(797.23 582.03) rotate(-123.04)" xlink:href="#linear-gradient-3"/><linearGradient id="linear-gradient-13" x1="563.56" y1="72.03" x2="569.45" y2="62.44" gradientTransform="translate(1038.69 362.19) rotate(-156.85)" xlink:href="#linear-gradient"/><linearGradient id="linear-gradient-14" x1="563.19" y1="72.36" x2="569.84" y2="62.93" gradientTransform="translate(1116.48 36.93) rotate(168.51)" xlink:href="#linear-gradient-3"/><linearGradient id="linear-gradient-15" x1="561.75" y1="72.9" x2="570.45" y2="64.2" gradientTransform="translate(1000.74 -268.41) rotate(134.7)" xlink:href="#linear-gradient"/><linearGradient id="linear-gradient-16" x1="564.99" y1="72.77" x2="566.36" y2="61.25" gradientTransform="translate(747.61 -453.59) rotate(102.25)" xlink:href="#linear-gradient-3"/><linearGradient id="linear-gradient-17" x1="563.61" y1="72.38" x2="569.49" y2="62.79" gradientTransform="translate(421.51 -470.57) rotate(68.44)" xlink:href="#linear-gradient"/><linearGradient id="linear-gradient-18" x1="563.12" y1="72.78" x2="569.77" y2="63.34" gradientTransform="matrix(0.83, 0.56, -0.56, 0.83, 135.6, -297.05)" xlink:href="#linear-gradient-3"/><linearGradient id="linear-gradient-19" x1="563.08" y1="74.23" x2="571.79" y2="65.52" xlink:href="#linear-gradient"/><linearGradient id="linear-gradient-20" x1="564.53" y1="72" x2="567.79" y2="63.03" gradientUnits="userSpaceOnUse"><stop offset="0" stop-color="#999897"/><stop offset="0.09" stop-color="#8d8c8b"/><stop offset="0.51" stop-color="#555"/><stop offset="0.83" stop-color="#333"/><stop offset="1" stop-color="#262626"/></linearGradient></defs><title>Logo</title><g id="Layer_6" data-name="Layer 6"><path class="cls-1" d="M556.37,53.64a21.3,21.3,0,1,0,21.3,21.3A21.3,21.3,0,0,0,556.37,53.64Zm0,37.42a16,16,0,1,1,16-16A16,16,0,0,1,556.37,91.07Z" transform="translate(-11.37 -34.33)"/></g><g id="Layer_5" data-name="Layer 5"><path class="cls-2" d="M563.19,67.55a9.52,9.52,0,0,0,3.2.45,5.63,5.63,0,0,0,3.13-2,7.93,7.93,0,0,0,.75-1s.27-.37.24-.42a5.85,5.85,0,0,0-.43-.67,15.54,15.54,0,0,0-2.5-2.32l-10.72,6.32a1.18,1.18,0,0,0,.28.39,21.89,21.89,0,0,1,4.18-.82A8.88,8.88,0,0,1,563.19,67.55Z" transform="translate(-11.37 -34.33)"/><path class="cls-3" d="M570.08,63.87c-2.5-3.37-9.32-6.11-9.32-6.11L554,68.2c.61.55,1.85.29,2.57.17l.59-.11a21.89,21.89,0,0,1,4.18-.82,8.88,8.88,0,0,1,1.88.1,9.52,9.52,0,0,0,3.2.45,5.63,5.63,0,0,0,3.13-2,7.93,7.93,0,0,0,.75-1s.27-.37.24-.42A5.85,5.85,0,0,0,570.08,63.87Z" transform="translate(-11.37 -34.33)"/><path class="cls-4" d="M552.18,58.22c.06,0,.28.34.31.38a7.94,7.94,0,0,1,.68,1.07,5.63,5.63,0,0,1,.73,3.66,9.52,9.52,0,0,1-1.59,2.82,8.88,8.88,0,0,0-.79,1.71c-.58,1.56-.53,3.17-.89,4.77-.16.71-.37,2-1.11,2.32L542.29,64.8S548,58.74,552.18,58.22Z" transform="translate(-11.37 -34.33)"/><path class="cls-5" d="M544.63,62.37s.4.17.45.19a7.94,7.94,0,0,1,1.1.63,5.63,5.63,0,0,1,2.36,2.88,9.52,9.52,0,0,1-.08,3.23,8.88,8.88,0,0,0,.11,1.88c.22,1.65,1,3,1.47,4.63.2.7.6,1.9.12,2.57L539,72.84S541.22,64.79,544.63,62.37Z" transform="translate(-11.37 -34.33)"/><path class="cls-6" d="M539.8,70.91c0-.05.43-.09.48-.09a7.94,7.94,0,0,1,1.26-.09,5.63,5.63,0,0,1,3.57,1.08,9.52,9.52,0,0,1,1.74,2.73A8.88,8.88,0,0,0,548,76c1.1,1.25,2.55,2,3.79,3,.55.48,1.55,1.25,1.53,2.07L541,82.73S538.31,74.82,539.8,70.91Z" transform="translate(-11.37 -34.33)"/><path class="cls-7" d="M540.42,80.77c0-.06.3-.31.34-.35a7.94,7.94,0,0,1,1-.79,5.63,5.63,0,0,1,3.55-1.14,9.52,9.52,0,0,1,3,1.26,8.88,8.88,0,0,0,1.79.59c1.61.4,3.21.16,4.84.34.73.08,2,.14,2.44.83l-9.25,8.33S541.42,84.83,540.42,80.77Z" transform="translate(-11.37 -34.33)"/><path class="cls-8" d="M546.58,88.4s.08-.43.09-.48a7.94,7.94,0,0,1,.38-1.21,5.63,5.63,0,0,1,2.31-2.92,9.52,9.52,0,0,1,3.18-.61,8.88,8.88,0,0,0,1.82-.51c1.56-.56,2.76-1.65,4.21-2.41.65-.34,1.73-1,2.49-.66l-3,12.07S550.88,93,546.58,88.4Z" transform="translate(-11.37 -34.33)"/><path class="cls-9" d="M555.64,91.66c-.06,0-.16-.4-.18-.45a7.94,7.94,0,0,1-.33-1.22,5.63,5.63,0,0,1,.39-3.71,9.52,9.52,0,0,1,2.35-2.22,8.88,8.88,0,0,0,1.26-1.4c1-1.31,1.44-2.87,2.26-4.3.36-.63.93-1.76,1.74-1.89L567,88.29S559.76,92.39,555.64,91.66Z" transform="translate(-11.37 -34.33)"/><path class="cls-10" d="M565.11,89.09c-.05,0-.36-.24-.4-.27a7.94,7.94,0,0,1-1-.83,5.63,5.63,0,0,1-1.74-3.3,9.52,9.52,0,0,1,.72-3.15,8.88,8.88,0,0,0,.27-1.87c.11-1.66-.4-3.19-.52-4.82-.05-.73-.21-2,.39-2.54L572.7,80S568.94,87.4,565.11,89.09Z" transform="translate(-11.37 -34.33)"/><path class="cls-11" d="M562.58,58.75c.05,0,0,.43,0,.48a7.94,7.94,0,0,1-.05,1.27,5.63,5.63,0,0,1-1.48,3.42,9.52,9.52,0,0,1-2.91,1.41,8.88,8.88,0,0,0-1.62,1c-1.36.95-2.24,2.31-3.44,3.42-.54.5-1.42,1.4-2.23,1.28l-.18-12.45S558.87,56.83,562.58,58.75Z" transform="translate(-11.37 -34.33)"/><path class="cls-12" d="M552.2,58.24c.06,0,.28.34.31.38a7.94,7.94,0,0,1,.68,1.07,5.63,5.63,0,0,1,.73,3.66,9.52,9.52,0,0,1-1.59,2.82,8.88,8.88,0,0,0-.79,1.71c-.58,1.56-.53,3.17-.89,4.77-.16.71-.37,2-1.11,2.32l-7.22-10.14S548,58.77,552.2,58.24Z" transform="translate(-11.37 -34.33)"/><path class="cls-13" d="M544.61,62.4s.4.17.45.19a7.94,7.94,0,0,1,1.1.63,5.63,5.63,0,0,1,2.36,2.88,9.52,9.52,0,0,1-.08,3.23,8.88,8.88,0,0,0,.11,1.88c.22,1.65,1,3,1.47,4.63.2.7.6,1.9.12,2.57L539,72.87S541.2,64.82,544.61,62.4Z" transform="translate(-11.37 -34.33)"/><path class="cls-14" d="M539.77,70.94c0-.05.43-.09.48-.09a7.94,7.94,0,0,1,1.26-.09,5.63,5.63,0,0,1,3.57,1.08,9.52,9.52,0,0,1,1.74,2.73,8.88,8.88,0,0,0,1.14,1.5c1.1,1.25,2.55,2,3.79,3,.55.48,1.55,1.25,1.53,2.07l-12.35,1.6S538.29,74.85,539.77,70.94Z" transform="translate(-11.37 -34.33)"/><path class="cls-15" d="M540.39,80.79c0-.06.3-.31.34-.35a7.94,7.94,0,0,1,1-.79,5.63,5.63,0,0,1,3.55-1.14,9.52,9.52,0,0,1,3,1.26,8.88,8.88,0,0,0,1.79.59c1.61.4,3.21.16,4.84.34.73.08,2,.14,2.44.83l-9.25,8.33S541.39,84.86,540.39,80.79Z" transform="translate(-11.37 -34.33)"/><path class="cls-16" d="M546.56,88.43s.08-.43.09-.48a7.94,7.94,0,0,1,.38-1.21,5.63,5.63,0,0,1,2.31-2.92,9.52,9.52,0,0,1,3.18-.61,8.88,8.88,0,0,0,1.82-.51c1.56-.56,2.76-1.65,4.21-2.41.65-.34,1.73-1,2.49-.66l-3,12.07S550.86,93,546.56,88.43Z" transform="translate(-11.37 -34.33)"/><path class="cls-17" d="M555.67,91.66c-.06,0-.16-.4-.18-.45a7.94,7.94,0,0,1-.33-1.22,5.63,5.63,0,0,1,.39-3.71,9.52,9.52,0,0,1,2.35-2.22,8.88,8.88,0,0,0,1.26-1.4c1-1.31,1.44-2.87,2.26-4.3.36-.63.93-1.76,1.74-1.89l3.9,11.82S559.79,92.39,555.67,91.66Z" transform="translate(-11.37 -34.33)"/><path class="cls-18" d="M565.14,89.09c-.05,0-.36-.24-.4-.27a7.94,7.94,0,0,1-1-.83,5.63,5.63,0,0,1-1.74-3.3,9.52,9.52,0,0,1,.72-3.15,8.88,8.88,0,0,0,.27-1.87c.11-1.66-.4-3.19-.52-4.82-.05-.73-.21-2,.39-2.54L572.73,80S569,87.4,565.14,89.09Z" transform="translate(-11.37 -34.33)"/><path class="cls-19" d="M571.77,72.82a5.63,5.63,0,0,1-3.71.41,9.52,9.52,0,0,1-2.67-1.83,8.88,8.88,0,0,0-1.64-.93,15.76,15.76,0,0,0-3.47-1,4.39,4.39,0,0,0,1.14,2c1,1.28,2.32,2.25,3.17,3.68a8.89,8.89,0,0,1,.84,1.69,9.52,9.52,0,0,0,1.2,3,5.63,5.63,0,0,0,3.31,1.72,7.94,7.94,0,0,0,1.26.14s.46,0,.49,0c1.45-2.37,1.44-6.79,1.26-9.51l-.05,0A7.94,7.94,0,0,1,571.77,72.82Z" transform="translate(-11.37 -34.33)"/><path class="cls-20" d="M560.3,69.17a1.09,1.09,0,0,0,0,.32,15.76,15.76,0,0,1,3.47,1,8.88,8.88,0,0,1,1.64.93,9.52,9.52,0,0,0,2.67,1.83,5.63,5.63,0,0,0,3.71-.41,7.94,7.94,0,0,0,1.12-.58l.05,0c-.09-1.38-.22-2.32-.22-2.32Z" transform="translate(-11.37 -34.33)"/><path class="cls-21" d="M570.08,63.87a5.85,5.85,0,0,1,.43.67s-.21.38-.24.42a7.93,7.93,0,0,1-.75,1,5.63,5.63,0,0,1-3.13,2,9.52,9.52,0,0,1-3.2-.45,8.88,8.88,0,0,0-1.88-.1,21.89,21.89,0,0,0-4.18.82,5,5,0,0,0,1.94.91c.4.13.8.22,1.2.31a15.76,15.76,0,0,1,3.47,1,8.88,8.88,0,0,1,1.64.93,9.52,9.52,0,0,0,2.67,1.83,5.63,5.63,0,0,0,3.71-.41,7.94,7.94,0,0,0,1.12-.58l.05,0c.11-.06.35-.2.35-.24A11.72,11.72,0,0,0,570.08,63.87Z" transform="translate(-11.37 -34.33)"/></g><g id="Layer_7" data-name="Layer 7"><path class="cls-1" d="M546.39,89.51a17.42,17.42,0,0,1-4.52-24.35A17.82,17.82,0,0,1,566.34,60a17.42,17.42,0,0,1,4.52,24.35A17.82,17.82,0,0,1,546.39,89.51Zm19.33-28.58a16.71,16.71,0,0,0-22.94,4.83A16.33,16.33,0,0,0,547,88.61a16.71,16.71,0,0,0,22.94-4.83A16.33,16.33,0,0,0,565.73,60.94Z" transform="translate(-11.37 -34.33)"/></g><g id="Lens"><path class="cls-22" d="M556.37,48.9A25.68,25.68,0,1,0,582,74.57,25.68,25.68,0,0,0,556.37,48.9Zm0,45.12A19.23,19.23,0,1,1,575.6,74.78,19.23,19.23,0,0,1,556.37,94Z" transform="translate(-11.37 -34.33)"/><text class="cls-23" transform="translate(544.27 18.93) rotate(0.09)">T</text><text class="cls-23" transform="matrix(1, 0.08, -0.08, 1, 545.86, 18.93)">R</text><text class="cls-23" transform="matrix(0.98, 0.18, -0.18, 0.98, 547.68, 19.06)">W</text><text class="cls-23" transform="translate(550.1 19.53) rotate(15.74)">h</text><text class="cls-23" transform="matrix(0.95, 0.32, -0.32, 0.95, 551.5, 19.93)">i</text><text class="cls-23" transform="matrix(0.94, 0.35, -0.35, 0.94, 552.04, 20.11)">t</text><text class="cls-23" transform="matrix(0.92, 0.39, -0.39, 0.92, 552.7, 20.34)">a</text><text class="cls-23" transform="translate(554.05 20.92) rotate(26.9)">k</text><text class="cls-23" transform="matrix(0.86, 0.51, -0.51, 0.86, 555.2, 21.5)">e</text><text class="cls-23" transform="matrix(0.83, 0.55, -0.55, 0.83, 556.47, 22.26)">r</text><text class="cls-23" transform="matrix(0.82, 0.57, -0.57, 0.82, 557.07, 22.66)">.</text><text class="cls-23" transform="translate(557.64 23.06) rotate(37.03)">i</text><text class="cls-23" transform="matrix(0.77, 0.64, -0.64, 0.77, 558.1, 23.4)">o</text><text class="cls-23" transform="matrix(0.74, 0.68, -0.68, 0.74, 559.21, 24.33)">	</text><text class="cls-23" transform="matrix(0.25, 0.97, -0.97, 0.25, 565.58, 34.61)">	</text><text class="cls-23" transform="translate(555.23 58.94) rotate(152.45)"> </text><text class="cls-23" transform="translate(554.58 59.29) rotate(154.45)"> </text><text class="cls-23" transform="matrix(-0.92, 0.4, -0.4, -0.92, 553.94, 59.59)"> </text><text class="cls-23" transform="translate(553.26 59.89) rotate(158.35)"> </text><text class="cls-23" transform="translate(552.61 60.15) rotate(160.24)"> </text><text class="cls-23" transform="matrix(-0.95, 0.31, -0.31, -0.95, 551.91, 60.4)"> </text><text class="cls-23" transform="translate(551.24 60.62) rotate(164.1)"> </text><text class="cls-23" transform="translate(550.54 60.82) rotate(166.07)"> </text><text class="cls-23" transform="translate(549.82 60.99) rotate(168.03)"> </text><text class="cls-23" transform="matrix(-0.98, 0.18, -0.18, -0.98, 549.13, 61.14)"> </text><text class="cls-23" transform="translate(548.41 61.27) rotate(171.87)"> </text><text class="cls-23" transform="matrix(-0.99, 0.11, -0.11, -0.99, 547.68, 61.37)"> </text><text class="cls-23" transform="translate(546.99 61.45) rotate(175.72)"> </text><text class="cls-23" transform="translate(546.25 61.5) rotate(177.69)"> </text><text class="cls-23" transform="translate(545.55 61.53) rotate(179.57)"> </text><text class="cls-23" transform="translate(544.81 61.54) rotate(-178.45)"> </text><text class="cls-23" transform="matrix(-1, -0.06, 0.06, -1, 544.11, 61.52)"> </text><text class="cls-23" transform="matrix(-1, -0.09, 0.09, -1, 543.37, 61.48)"> </text><text class="cls-23" transform="translate(542.66 61.41) rotate(-172.66)"> </text><text class="cls-23" transform="translate(541.93 61.32) rotate(-170.66)"> </text><text class="cls-23" transform="translate(541.28 61.22) rotate(-167.69)">T</text><text class="cls-23" transform="matrix(-0.96, -0.29, 0.29, -0.96, 539.74, 60.89)">R</text><text class="cls-23" transform="translate(537.97 60.38) rotate(-157.24)">W</text><text class="cls-23" transform="matrix(-0.89, -0.45, 0.45, -0.89, 535.84, 59.46)">.</text><text class="cls-23" transform="translate(535.18 59.12) rotate(-151.57)">i</text><text class="cls-23" transform="matrix(-0.86, -0.52, 0.52, -0.86, 534.68, 58.86)">o</text></g><g id="Layer_8" data-name="Layer 8"><path class="cls-24" d="M74.07,43H56c-1.81,0-2.81-.45-2.81-1.54a6.54,6.54,0,0,1,1.18-3.45c.45-.54,1.18-.64,2.36-.64H99.3c1.81,0,2.81.45,2.81,1.54a6.55,6.55,0,0,1-1.18,3.45c-.45.54-1.18.64-2.36.64H80.24L69.44,93.68c-.45,2-1.27,2.81-3.09,2.81h-.82c-1.81,0-2.63-1.18-2.18-3.17Z" transform="translate(-11.37 -34.33)"/><path class="cls-24" d="M110.94,41.14a4,4,0,0,1,4.27-3.72h14.34c12.61,0,19.51,5,19.51,14.43,0,12.34-8.53,19.6-22.14,19.6h-1l8.08,14c2.72,4.72,4.36,6.81,8.62,6.81.18,0,.64,4.36-4.35,4.36-3.18,0-5.63-1.45-9.8-8.8l-9.17-16.33h-8.62l-4.72,22.23c-.45,2-1.27,2.81-3.08,2.81H102c-1.81,0-2.63-1.18-2.18-3.17Zm16.15,25c9.8,0,15.52-5.08,15.52-13.7,0-6.26-4.72-9.62-13.43-9.62H116.75l-5,23.32Z" transform="translate(-11.37 -34.33)"/><path class="cls-24" d="M161.06,38.32c0-.45,1.54-1.36,3-1.36,2,0,3.36,1.45,3.36,3.9l.73,49.73,22-42.47c1.09-2.18,2.18-3,4.9-3,3.45,0,4.44,1.73,4.63,4l3.72,41.29,23.69-53.18c0-.09,4.54-.91,4.54,3.18,0,1-.27,2-1.36,4.26l-22.87,50c-.64,1.36-1.73,2.09-4.63,2.09-3.45,0-4.26-1.27-4.44-3.08l-3.81-42.47-23,43.28c-1,1.81-1.73,2.27-4.45,2.27-3.35,0-4.26-1.09-4.36-3Z" transform="translate(-11.37 -34.33)"/><path class="cls-24" d="M243.5,37.14c.45-2.09,1.27-2.81,2.72-2.81h.72c1.54,0,2.9.64,2.45,2.81l-4.9,23a16.83,16.83,0,0,1,14.34-8.26c9.53,0,15.15,6.26,15.15,14.61,0,3.18-1.27,8.26-2.63,13.25-1.27,4.45-2.18,8.08-2.18,9.8,0,2.45,1.27,3.18,3.81,3.36.18,0,.27,4-3.9,4-3.63,0-5.81-2.45-5.81-6.44,0-2.54,1.09-6.9,2.36-11.53s2.27-8.89,2.27-11.34c0-6.26-3.54-10.16-9.89-10.16-6.62,0-11.07,3.45-15.15,10.43l-5.45,25.87c-.45,2.09-1.27,2.81-2.72,2.81H234c-1.54,0-2.9-.64-2.45-2.81Z" transform="translate(-11.37 -34.33)"/><path class="cls-24" d="M288.9,55.38c.45-2.09,1.27-2.81,2.72-2.81h.72c1.54,0,2.9.64,2.45,2.81L288.08,87c-.91,4.27-.09,5.81,4.36,5.81.09,0,.36,4.08-4.27,4.08-5.35,0-7.35-3.45-6-9.8ZM291.53,39c0-2.36,1.36-4.63,4.17-4.63,2.63,0,4,1.09,4,3,0,2.36-1.36,4.63-4.17,4.63C292.89,42,291.53,41,291.53,39Z" transform="translate(-11.37 -34.33)"/><path class="cls-24" d="M309.05,58.2h-3.72c-1.73,0-2.63-.45-2.63-1.45a5.58,5.58,0,0,1,1.09-3.18,2.83,2.83,0,0,1,2.18-.64h4.17l.91-4.26c.91-4.45,2.36-6.08,4.81-6.08a3.82,3.82,0,0,1,2.27.73L316,52.93h10.89c1.73,0,2.63.45,2.63,1.45a5.58,5.58,0,0,1-1.09,3.18,2.83,2.83,0,0,1-2.18.64H315l-5,23.32c-1.63,7.71.64,10.62,5.53,10.62a8.44,8.44,0,0,0,6-2.63c.18-.18,1.36,1.09,1.36,2.72A3.82,3.82,0,0,1,321.58,95c-1.27,1.27-3.72,2.18-7,2.18-8.08,0-12.61-5.26-10.43-15.7Z" transform="translate(-11.37 -34.33)"/><path class="cls-24" d="M355.17,51.85c7.17,0,12.89,3.81,15.24,9.16l.55-2.36c.91-4.45,2.27-6.08,4.72-6.08a3.86,3.86,0,0,1,2.27.72L370.78,87c-.91,4.27-.09,5.72,3.9,5.81.09,0,.45,4.08-4.09,4.08-4.9,0-6.89-3.27-5.9-8.89A19.68,19.68,0,0,1,348,97.22c-9.35,0-17.33-6.35-17.33-18.33C330.67,65.55,340.92,51.85,355.17,51.85ZM348.73,92c9.07,0,16.88-7.71,18.69-16.61L369,68.27C367,61.37,362.25,57,354.81,57c-11.35,0-18.15,11.43-18.15,21.78C336.66,87.24,342.19,92,348.73,92Z" transform="translate(-11.37 -34.33)"/><path class="cls-24" d="M393.4,37.14c.45-2.09,1.27-2.81,2.72-2.81h.72c1.54,0,2.9.64,2.45,2.81l-7.53,35.39,25.68-20.69a3,3,0,0,1,2.72,3c0,1.36-1,2.72-3.18,4.45L398.21,74.17l7.71,11.34c4,6,5.17,6.35,9.35,6.54a4.06,4.06,0,0,1-4.36,4.81c-3.63,0-5.17-1.45-10.71-9.8L391.49,73.9l-4.17,19.78c-.45,2.09-1.27,2.81-2.72,2.81h-.72c-1.54,0-2.9-.64-2.45-2.81Z" transform="translate(-11.37 -34.33)"/><path class="cls-24" d="M448.32,51.85c9.71,0,15.43,4.63,15.43,11.43,0,8.62-5.72,13.8-25.14,13.8-3.35,0-7-.18-11.43-.55-.09.91-.09,1.82-.09,2.72,0,7.63,4.44,12.89,13,12.89,6.72,0,11.07-2.45,14.61-7.17.18-.27,3.08.64,3.08,2.81,0,1.36-.45,2.27-2,3.81-3.81,3.81-8.8,5.63-15.88,5.63-12.25,0-18.78-7.44-18.78-17.6C421.1,64,432.89,51.85,448.32,51.85ZM438.07,72.08c15.61,0,19.69-4.17,19.69-8.71,0-3.18-3.18-6.35-9.71-6.35-9.07,0-16.61,6.26-19.6,14.52A76.39,76.39,0,0,0,438.07,72.08Z" transform="translate(-11.37 -34.33)"/><path class="cls-24" d="M475.11,52.84a2,2,0,0,1,1.27-.27c2.27,0,4.27,1.09,3.27,6.26l-.37,1.73c3-5.72,6.81-8.71,12.16-8.71,3.35,0,6.26,1.54,6.26,4.08,0,2.9-2.18,4.08-2.36,3.9a7.26,7.26,0,0,0-5.63-2.36c-7,0-11.71,8.9-14.25,21.05L472.3,93.68c-.45,2.09-1.27,2.81-2.72,2.81h-.72c-1.54,0-2.9-.64-2.45-2.81Z" transform="translate(-11.37 -34.33)"/><path class="cls-24" d="M493.19,88.87a4.47,4.47,0,0,1,3.36-1.18c2.72,0,4.36,1.18,4.36,3.08,0,2.18-.45,3.72-1.45,4.72a4.47,4.47,0,0,1-3.36,1.18c-2.72,0-4.36-1.18-4.36-3.08C491.74,91.41,492.19,89.87,493.19,88.87Z" transform="translate(-11.37 -34.33)"/><path class="cls-24" d="M520.15,55.38c.45-2.09,1.27-2.81,2.72-2.81h.72c1.54,0,2.9.64,2.45,2.81L519.34,87c-.91,4.27-.09,5.81,4.36,5.81.09,0,.36,4.08-4.27,4.08-5.35,0-7.35-3.45-6-9.8ZM522.78,39c0-2.36,1.36-4.63,4.17-4.63,2.63,0,4,1.09,4,3,0,2.36-1.36,4.63-4.17,4.63C524.15,42,522.78,41,522.78,39Z" transform="translate(-11.37 -34.33)"/><path class="cls-24" d="M11.37,72.89c0-2.16.88-3.92,4.12-5.49L49.7,50.94c.3-.1,2,1.27,2.06,3.14.1,1.47-.78,2.94-4.21,4.6L17.94,72.6,40.58,85.73c3.23,1.86,4,3.53,3.82,5-.3,2.06-2,3.24-2.35,2.94L13.73,76.81A4.42,4.42,0,0,1,11.37,72.89Z" transform="translate(-11.37 -34.33)"/><path class="cls-24" d="M585,90.53c-.1-1.47.78-2.94,4.21-4.61L618.82,72,596.18,58.87c-3.24-1.86-4-3.53-3.82-5,.29-2.06,2-3.24,2.35-2.94L623,67.79a4.42,4.42,0,0,1,2.35,3.92c0,2.15-.88,3.92-4.11,5.49L587.06,93.67C586.77,93.76,585.1,92.4,585,90.53Z" transform="translate(-11.37 -34.33)"/></g></svg>