<svg xmlns="http://www.w3.org/2000/svg" xmlns:xlink="http://www.w3.org/1999/xlink" viewBox="0 0 614.01 73.83"><defs><style>.cls-1,.cls-22{fill:#262626;}.cls-2{fill:url(#linear-gradient);}.cls-3{fill:url(#linear-gradient-2);}.cls-4{fill:url(#linear-gradient-3);}.cls-5{fill:url(#linear-gradient-4);}.cls-6{fill:url(#linear-gradient-5);}.cls-7{fill:url(#linear-gradient-6);}.cls-8{fill:url(#linear-gradient-7);}.cls-9{fill:url(#linear-gradient-8);}.cls-10{fill:url(#linear-gradient-9);}.cls-11{fill:url(#linear-gradient-10);}.cls-12{fill:url(#linear-gradient-11);}.cls-13{fill:url(#linear-gradient-12);}.cls-14{fill:url(#linear-gradient-13);}.cls-15{fill:url(#linear-gradient-14);}.cls-16{fill:url(#linear-gradient-15);}.cls-17{fill:url(#linear-gradient-16);}.cls-18{fill:url(#linear-gradient-17);}.cls-19{fill:url(#linear-gradient-18);}.cls-20{fill:url(#linear-gradient-19);}.cls-21{fill:url(#linear-gradient-20);}.cls-22{stroke:#fff;stroke-miterlimit:10;}.cls-23{font-size:3.26px;font-family:ArialNarrow, Arial Narrow;}.cls-23,.cls-24{fill:#fff;}</style><linearGradient id="linear-gradient" x1="559.5" y1="70.64" x2="568.2" y2="61.94" gradientUnits="userSpaceOnUse"><stop offset="0" stop-color="#999897"/><stop offset="0.29" stop-color="#6d6d6c"/><stop offset="0.6" stop-color="#474646"/><stop offset="0.85" stop-color="#2f2f2f"/><stop offset="1" stop-color="#262626"/></linearGradient><linearGradient id="linear-gradient-2" x1="557.2" y1="71.01" x2="575.84" y2="49.56" gradientUnits="userSpaceOnUse"><stop offset="0" stop-color="#999897"/><stop offset="0.21" stop-color="#717070"/><stop offset="0.43" stop-color="#515050"/><stop offset="0.64" stop-color="#393939"/><stop offset="0.83" stop-color="#2b2b2b"/><stop offset="1" stop-color="#262626"/></linearGradient><linearGradient id="linear-gradient-3" x1="562.79" y1="72.28" x2="569.44" y2="62.85" gradientTransform="translate(529.87 635.13) rotate(-94.92)" gradientUnits="userSpaceOnUse"><stop offset="0" stop-color="#999897"/><stop offset="0.12" stop-color="#888786"/><stop offset="0.53" stop-color="#535352"/><stop offset="0.83" stop-color="#323232"/><stop offset="1" stop-color="#262626"/></linearGradient><linearGradient id="linear-gradient-4" x1="564.77" y1="72.54" x2="566.13" y2="61.02" gradientTransform="translate(797.23 582.03) rotate(-123.04)" xlink:href="#linear-gradient-3"/><linearGradient id="linear-gradient-5" x1="563.55" y1="72.06" x2="569.44" y2="62.48" gradientTransform="translate(1038.69 362.19) rotate(-156.85)" xlink:href="#linear-gradient"/><linearGradient id="linear-gradient-6" x1="563.16" y1="72.38" x2="569.81" y2="62.95" gradientTransform="translate(1116.48 36.93) rotate(168.51)" xlink:href="#linear-gradient-3"/><linearGradient id="linear-gradient-7" x1="561.71" y1="72.9" x2="570.42" y2="64.2" gradientTransform="translate(1000.74 -268.41) rotate(134.7)" xlink:href="#linear-gradient"/><linearGradient id="linear-gradient-8" x1="565" y1="72.8" x2="566.36" y2="61.28" gradientTransform="translate(747.61 -453.59) rotate(102.25)" xlink:href="#linear-gradient-3"/><linearGradient id="linear-gradient-9" x1="563.59" y1="72.41" x2="569.48" y2="62.83" gradientTransform="translate(421.51 -470.57) rotate(68.44)" xlink:href="#linear-gradient"/><linearGradient id="linear-gradient-10" x1="563.44" y1="72.68" x2="569.32" y2="63.09" gradientTransform="translate(215.65 520.64) rotate(-60.28)" xlink:href="#linear-gradient"/><linearGradient id="linear-gradient-11" x1="562.76" y1="72.3" x2="569.41" y2="62.87" xlink:href="#linear-gradient-3"/><linearGradient id="linear-gradient-12" x1="564.76" y1="72.5" x2="566.12" y2="60.98" gradientTransform="translate(797.23 582.03) rotate(-123.04)" xlink:href="#linear-gradient-3"/><linearGradient id="linear-gradient-13" x1="563.56" y1="72.03" x2="569.45" y2="62.44" gradientTransform="translate(1038.69 362.19) rotate(-156.85)" xlink:href="#linear-gradient"/><linearGradient id="linear-gradient-14" x1="563.19" y1="72.36" x2="569.84" y2="62.93" gradientTransform="translate(1116.48 36.93) rotate(168.51)" xlink:href="#linear-gradient-3"/><linearGradient id="linear-gradient-15" x1="561.75" y1="72.9" x2="570.45" y2="64.2" gradientTransform="translate(1000.74 -268.41) rotate(134.7)" xlink:href="#linear-gradient"/><linearGradient id="linear-gradient-16" x1="564.99" y1="72.77" x2="566.36" y2="61.25" gradientTransform="translate(747.61 -453.59) rotate(102.25)" xlink:href="#linear-gradient-3"/><linearGradient id="linear-gradient-17" x1="563.61" y1="72.38" x2="569.49" y2="62.79" gradientTransform="translate(421.51 -470.57) rotate(68.44)" xlink:href="#linear-gradient"/><linearGradient id="linear-gradient-18" x1="563.12" y1="72.78" x2="569.77" y2="63.34" gradientTransform="matrix(0.83, 0.56, -0.56, 0.83, 135.6, -297.05)" xlink:href="#linear-gradient-3"/><linearGradient id="linear-gradient-19" x1="563.08" y1="74.23" x2="571.79" y2="65.52" xlink:href="#linear-gradient"/><linearGradient id="linear-gradient-20" x1="564.53" y1="72" x2="567.79" y2="63.03" gradientUnits="userSpaceOnUse"><stop offset="0" stop-color="#999897"/><stop offset="0.09" stop-color="#8d8c8b"/><stop offset="0.51" stop-color="#555"/><stop offset="0.83" stop-color="#333"/><stop offset="1" stop-color="#262626"/></linearGradient></defs><title>logoWhite</title><g id="Layer_6" data-name="Layer 6"><path class="cls-1" d="M556.37,53.64a21.3,21.3,0,1,0,21.3,21.3A21.3,21.3,0,0,0,556.37,53.64Zm0,37.43a16,16,0,1,1,16-15.95A16,16,0,0,1,556.37,91.07Z" transform="translate(-11.37 -34.33)"/></g><g id="Layer_5" data-name="Layer 5"><path class="cls-2" d="M563.19,67.55a9.22,9.22,0,0,0,3.2.45,5.61,5.61,0,0,0,3.14-2,8.36,8.36,0,0,0,.75-1s.26-.37.23-.42a5.41,5.41,0,0,0-.43-.67,15.8,15.8,0,0,0-2.5-2.32l-10.73,6.32a1.21,1.21,0,0,0,.28.4,21.18,21.18,0,0,1,4.18-.82A9.13,9.13,0,0,1,563.19,67.55Z" transform="translate(-11.37 -34.33)"/><path class="cls-3" d="M570.08,63.87c-2.5-3.37-9.32-6.11-9.32-6.11L554,68.2c.61.55,1.84.29,2.56.18l.59-.11a21.18,21.18,0,0,1,4.18-.82,9.13,9.13,0,0,1,1.88.1,9.22,9.22,0,0,0,3.2.45,5.61,5.61,0,0,0,3.14-2,8.36,8.36,0,0,0,.75-1s.26-.37.23-.42A5.41,5.41,0,0,0,570.08,63.87Z" transform="translate(-11.37 -34.33)"/><path class="cls-4" d="M552.18,58.22c.05,0,.27.33.3.37a8,8,0,0,1,.68,1.07,5.68,5.68,0,0,1,.73,3.66,9.64,9.64,0,0,1-1.6,2.82,9.48,9.48,0,0,0-.79,1.71c-.58,1.55-.53,3.17-.89,4.77-.15.71-.37,2-1.1,2.32L542.29,64.8S548,58.74,552.18,58.22Z" transform="translate(-11.37 -34.33)"/><path class="cls-5" d="M544.63,62.37s.41.17.45.19a7.46,7.46,0,0,1,1.1.63,5.59,5.59,0,0,1,2.37,2.88,9.74,9.74,0,0,1-.08,3.23,9.19,9.19,0,0,0,.11,1.89c.22,1.64,1,3,1.47,4.62.19.71.59,1.9.12,2.57L539,72.84S541.22,64.79,544.63,62.37Z" transform="translate(-11.37 -34.33)"/><path class="cls-6" d="M539.8,70.91s.43-.08.48-.09a6.62,6.62,0,0,1,1.26-.09,5.55,5.55,0,0,1,3.57,1.08,9.45,9.45,0,0,1,1.73,2.73A9.13,9.13,0,0,0,548,76c1.1,1.25,2.55,2,3.79,3,.56.47,1.56,1.24,1.54,2.07L541,82.73S538.31,74.82,539.8,70.91Z" transform="translate(-11.37 -34.33)"/><path class="cls-7" d="M540.42,80.77c0-.06.3-.31.34-.35a8.26,8.26,0,0,1,1-.79,5.6,5.6,0,0,1,3.55-1.14,9.11,9.11,0,0,1,3,1.26,9.48,9.48,0,0,0,1.8.59c1.61.4,3.2.16,4.84.33.72.08,2,.15,2.43.83l-9.25,8.34S541.42,84.83,540.42,80.77Z" transform="translate(-11.37 -34.33)"/><path class="cls-8" d="M546.58,88.4a2,2,0,0,1,.09-.47,8.11,8.11,0,0,1,.38-1.21,5.61,5.61,0,0,1,2.32-2.92,9.45,9.45,0,0,1,3.17-.62,8.76,8.76,0,0,0,1.82-.5,34.48,34.48,0,0,0,4.21-2.42c.65-.34,1.73-1,2.49-.66l-3,12.07S550.88,93,546.58,88.4Z" transform="translate(-11.37 -34.33)"/><path class="cls-9" d="M555.64,91.66c-.06,0-.17-.4-.18-.45a6.28,6.28,0,0,1-.33-1.22,5.63,5.63,0,0,1,.38-3.71,9.6,9.6,0,0,1,2.36-2.22,9.33,9.33,0,0,0,1.26-1.4,34.45,34.45,0,0,0,2.25-4.3c.37-.63.93-1.76,1.74-1.89L567,88.29S559.76,92.39,555.64,91.66Z" transform="translate(-11.37 -34.33)"/><path class="cls-10" d="M565.11,89.09c-.05,0-.36-.24-.4-.27a8.4,8.4,0,0,1-1-.83,5.65,5.65,0,0,1-1.74-3.3,9.56,9.56,0,0,1,.72-3.15,9.17,9.17,0,0,0,.27-1.87,33.83,33.83,0,0,0-.52-4.82c-.05-.73-.2-2,.4-2.55L572.7,80S568.94,87.4,565.11,89.09Z" transform="translate(-11.37 -34.33)"/><path class="cls-11" d="M562.58,58.75c.06,0,0,.44,0,.49a7.59,7.59,0,0,1,0,1.26,5.69,5.69,0,0,1-1.48,3.43,9.69,9.69,0,0,1-2.91,1.41,8.94,8.94,0,0,0-1.63,1,34.7,34.7,0,0,0-3.44,3.42c-.53.49-1.41,1.4-2.23,1.28l-.17-12.45S558.87,56.83,562.58,58.75Z" transform="translate(-11.37 -34.33)"/><path class="cls-12" d="M552.2,58.24c.06,0,.28.34.3.38a8,8,0,0,1,.68,1.07,5.68,5.68,0,0,1,.73,3.66,9.47,9.47,0,0,1-1.6,2.81,9.58,9.58,0,0,0-.79,1.72,33.13,33.13,0,0,0-.88,4.77c-.16.71-.37,1.95-1.11,2.32l-7.22-10.14S548.05,58.77,552.2,58.24Z" transform="translate(-11.37 -34.33)"/><path class="cls-13" d="M544.61,62.4s.4.16.45.18a8,8,0,0,1,1.1.63,5.65,5.65,0,0,1,2.36,2.88,9.53,9.53,0,0,1-.07,3.24,8.48,8.48,0,0,0,.11,1.88c.22,1.65,1,3,1.46,4.63.2.7.6,1.9.12,2.57L539,72.87S541.2,64.82,544.61,62.4Z" transform="translate(-11.37 -34.33)"/><path class="cls-14" d="M539.77,70.94c0-.06.43-.09.48-.1a8.9,8.9,0,0,1,1.26-.09,5.65,5.65,0,0,1,3.57,1.08,9.62,9.62,0,0,1,1.74,2.73,8.36,8.36,0,0,0,1.14,1.5,33.55,33.55,0,0,0,3.79,3c.55.48,1.55,1.25,1.53,2.07l-12.35,1.6S538.29,74.85,539.77,70.94Z" transform="translate(-11.37 -34.33)"/><path class="cls-15" d="M540.39,80.79c0-.05.31-.31.34-.34a8.45,8.45,0,0,1,1-.8,5.66,5.66,0,0,1,3.55-1.14,9.76,9.76,0,0,1,3,1.26,8.73,8.73,0,0,0,1.79.59c1.61.4,3.21.16,4.84.34.73.07,2,.14,2.44.83l-9.25,8.33S541.39,84.86,540.39,80.79Z" transform="translate(-11.37 -34.33)"/><path class="cls-16" d="M546.56,88.43s.08-.43.09-.48a7.7,7.7,0,0,1,.38-1.21,5.63,5.63,0,0,1,2.31-2.92,9.5,9.5,0,0,1,3.18-.61,9,9,0,0,0,1.82-.51c1.56-.56,2.75-1.65,4.2-2.41.65-.34,1.74-1,2.49-.67l-3,12.07S550.86,93,546.56,88.43Z" transform="translate(-11.37 -34.33)"/><path class="cls-17" d="M555.67,91.66s-.16-.4-.18-.45a8.11,8.11,0,0,1-.33-1.22,5.64,5.64,0,0,1,.39-3.71,9.74,9.74,0,0,1,2.35-2.22,8.81,8.81,0,0,0,1.26-1.4c1-1.32,1.44-2.87,2.26-4.3.36-.63.93-1.76,1.74-1.89l3.9,11.82S559.79,92.39,555.67,91.66Z" transform="translate(-11.37 -34.33)"/><path class="cls-18" d="M565.14,89.09s-.36-.24-.4-.27a7.53,7.53,0,0,1-1-.83,5.65,5.65,0,0,1-1.74-3.3,9.32,9.32,0,0,1,.72-3.15,9.15,9.15,0,0,0,.26-1.87c.12-1.66-.4-3.19-.51-4.82-.06-.73-.21-2,.39-2.55L572.73,80S569,87.4,565.14,89.09Z" transform="translate(-11.37 -34.33)"/><path class="cls-19" d="M571.77,72.82a5.61,5.61,0,0,1-3.71.41,9.69,9.69,0,0,1-2.67-1.83,8.56,8.56,0,0,0-1.64-.93,15.9,15.9,0,0,0-3.47-1,4.44,4.44,0,0,0,1.14,2,33.61,33.61,0,0,1,3.17,3.68,9.41,9.41,0,0,1,.84,1.68,9.49,9.49,0,0,0,1.2,3,5.61,5.61,0,0,0,3.31,1.72,7.47,7.47,0,0,0,1.25.14s.46,0,.49,0c1.45-2.37,1.44-6.79,1.26-9.51l-.05,0A8.5,8.5,0,0,1,571.77,72.82Z" transform="translate(-11.37 -34.33)"/><path class="cls-20" d="M560.3,69.17a1.15,1.15,0,0,0,0,.32,15.9,15.9,0,0,1,3.47,1,8.56,8.56,0,0,1,1.64.93,9.69,9.69,0,0,0,2.67,1.83,5.61,5.61,0,0,0,3.71-.41,8.5,8.5,0,0,0,1.12-.58l.05,0c-.09-1.38-.21-2.32-.21-2.32Z" transform="translate(-11.37 -34.33)"/><path class="cls-21" d="M570.08,63.87a5.41,5.41,0,0,1,.43.67s-.21.38-.23.42a8.36,8.36,0,0,1-.75,1,5.61,5.61,0,0,1-3.14,2,9.22,9.22,0,0,1-3.2-.45,9.13,9.13,0,0,0-1.88-.1,21.18,21.18,0,0,0-4.18.82,5.1,5.1,0,0,0,2,.91c.39.12.8.22,1.2.31a15.9,15.9,0,0,1,3.47,1,8.56,8.56,0,0,1,1.64.93,9.69,9.69,0,0,0,2.67,1.83,5.61,5.61,0,0,0,3.71-.41,8.5,8.5,0,0,0,1.12-.58l.05,0c.11-.06.35-.2.35-.24A11.71,11.71,0,0,0,570.08,63.87Z" transform="translate(-11.37 -34.33)"/></g><g id="Layer_7" data-name="Layer 7"><path class="cls-1" d="M546.39,89.51a17.42,17.42,0,0,1-4.52-24.35A17.82,17.82,0,0,1,566.34,60a17.42,17.42,0,0,1,4.52,24.35A17.82,17.82,0,0,1,546.39,89.51Zm19.34-28.57a16.72,16.72,0,0,0-23,4.83A16.34,16.34,0,0,0,547,88.61,16.72,16.72,0,0,0,570,83.77,16.33,16.33,0,0,0,565.73,60.94Z" transform="translate(-11.37 -34.33)"/></g><g id="Lens"><path class="cls-22" d="M556.37,48.9A25.68,25.68,0,1,0,582,74.57,25.67,25.67,0,0,0,556.37,48.9Zm0,45.11A19.23,19.23,0,1,1,575.6,74.78,19.23,19.23,0,0,1,556.37,94Z" transform="translate(-11.37 -34.33)"/><text class="cls-23" transform="translate(544.27 18.93) rotate(0.09)">T</text><text class="cls-23" transform="matrix(1, 0.08, -0.08, 1, 545.86, 18.93)">R</text><text class="cls-23" transform="matrix(0.98, 0.18, -0.18, 0.98, 547.68, 19.06)">W</text><text class="cls-23" transform="translate(550.1 19.53) rotate(15.74)">h</text><text class="cls-23" transform="matrix(0.95, 0.32, -0.32, 0.95, 551.5, 19.93)">i</text><text class="cls-23" transform="matrix(0.94, 0.35, -0.35, 0.94, 552.04, 20.11)">t</text><text class="cls-23" transform="matrix(0.92, 0.39, -0.39, 0.92, 552.7, 20.34)">a</text><text class="cls-23" transform="translate(554.05 20.92) rotate(26.9)">k</text><text class="cls-23" transform="matrix(0.86, 0.51, -0.51, 0.86, 555.2, 21.5)">e</text><text class="cls-23" transform="matrix(0.83, 0.55, -0.55, 0.83, 556.47, 22.26)">r</text><text class="cls-23" transform="matrix(0.82, 0.57, -0.57, 0.82, 557.07, 22.66)">.</text><text class="cls-23" transform="translate(557.64 23.06) rotate(37.03)">i</text><text class="cls-23" transform="matrix(0.77, 0.64, -0.64, 0.77, 558.1, 23.4)">o</text><text class="cls-23" transform="matrix(0.74, 0.68, -0.68, 0.74, 559.21, 24.33)">	</text><text class="cls-23" transform="matrix(0.25, 0.97, -0.97, 0.25, 565.58, 34.61)">	</text><text class="cls-23" transform="translate(555.23 58.94) rotate(152.45)"> </text><text class="cls-23" transform="translate(554.58 59.29) rotate(154.45)"> </text><text class="cls-23" transform="matrix(-0.92, 0.4, -0.4, -0.92, 553.94, 59.59)"> </text><text class="cls-23" transform="translate(553.26 59.89) rotate(158.35)"> </text><text class="cls-23" transform="translate(552.61 60.15) rotate(160.24)"> </text><text class="cls-23" transform="matrix(-0.95, 0.31, -0.31, -0.95, 551.91, 60.4)"> </text><text class="cls-23" transform="translate(551.24 60.62) rotate(164.1)"> </text><text class="cls-23" transform="translate(550.54 60.82) rotate(166.07)"> </text><text class="cls-23" transform="translate(549.82 60.99) rotate(168.03)"> </text><text class="cls-23" transform="matrix(-0.98, 0.18, -0.18, -0.98, 549.13, 61.14)"> </text><text class="cls-23" transform="translate(548.41 61.27) rotate(171.87)"> </text><text class="cls-23" transform="matrix(-0.99, 0.11, -0.11, -0.99, 547.68, 61.37)"> </text><text class="cls-23" transform="translate(546.99 61.45) rotate(175.72)"> </text><text class="cls-23" transform="translate(546.25 61.5) rotate(177.69)"> </text><text class="cls-23" transform="translate(545.55 61.53) rotate(179.57)"> </text><text class="cls-23" transform="translate(544.81 61.54) rotate(-178.45)"> </text><text class="cls-23" transform="matrix(-1, -0.06, 0.06, -1, 544.11, 61.52)"> </text><text class="cls-23" transform="matrix(-1, -0.09, 0.09, -1, 543.37, 61.48)"> </text><text class="cls-23" transform="translate(542.66 61.41) rotate(-172.66)"> </text><text class="cls-23" transform="translate(541.93 61.32) rotate(-170.66)"> </text><text class="cls-23" transform="translate(541.28 61.22) rotate(-167.69)">T</text><text class="cls-23" transform="matrix(-0.96, -0.29, 0.29, -0.96, 539.74, 60.89)">R</text><text class="cls-23" transform="translate(537.97 60.38) rotate(-157.24)">W</text><text class="cls-23" transform="matrix(-0.89, -0.45, 0.45, -0.89, 535.84, 59.46)">.</text><text class="cls-23" transform="translate(535.18 59.12) rotate(-151.57)">i</text><text class="cls-23" transform="matrix(-0.86, -0.52, 0.52, -0.86, 534.68, 58.86)">o</text></g><g id="Layer_8" data-name="Layer 8"><path class="cls-24" d="M74.07,43H56c-1.81,0-2.81-.45-2.81-1.54a6.52,6.52,0,0,1,1.18-3.45c.45-.54,1.18-.63,2.36-.63H99.3c1.81,0,2.81.45,2.81,1.54a6.52,6.52,0,0,1-1.18,3.45c-.45.54-1.18.63-2.36.63H80.24L69.44,93.68c-.45,2-1.27,2.81-3.09,2.81h-.81c-1.82,0-2.63-1.18-2.18-3.17Z" transform="translate(-11.37 -34.33)"/><path class="cls-24" d="M110.94,41.14a4,4,0,0,1,4.27-3.72h14.33c12.62,0,19.51,5,19.51,14.43,0,12.34-8.53,19.6-22.14,19.6h-1l8.08,14c2.72,4.72,4.36,6.81,8.62,6.81.18,0,.63,4.35-4.35,4.35-3.18,0-5.63-1.45-9.8-8.8l-9.17-16.33h-8.62L106,93.68c-.46,2-1.27,2.81-3.09,2.81h-.81c-1.82,0-2.63-1.18-2.18-3.17Zm16.15,25c9.8,0,15.52-5.08,15.52-13.7,0-6.26-4.72-9.62-13.43-9.62H116.75l-5,23.32Z" transform="translate(-11.37 -34.33)"/><path class="cls-24" d="M161.06,38.32c0-.45,1.54-1.36,3-1.36,2,0,3.36,1.45,3.36,3.9l.73,49.73,22.05-42.47c1.09-2.17,2.18-3,4.9-3,3.45,0,4.44,1.73,4.62,4l3.72,41.29,23.69-53.18c0-.09,4.54-.9,4.54,3.18,0,1-.27,2-1.36,4.27l-22.87,50c-.64,1.36-1.73,2.08-4.63,2.08-3.45,0-4.26-1.27-4.45-3.08l-3.81-42.47-23,43.29c-1,1.81-1.72,2.26-4.44,2.26-3.36,0-4.27-1.09-4.36-3Z" transform="translate(-11.37 -34.33)"/><path class="cls-24" d="M243.5,37.14c.45-2.08,1.27-2.81,2.72-2.81H247c1.54,0,2.9.64,2.45,2.81l-4.9,23a16.82,16.82,0,0,1,14.34-8.25c9.52,0,15.15,6.25,15.15,14.6,0,3.18-1.27,8.26-2.63,13.25-1.27,4.45-2.18,8.08-2.18,9.8,0,2.45,1.27,3.18,3.81,3.36.19,0,.27,4-3.9,4-3.63,0-5.81-2.45-5.81-6.44,0-2.54,1.09-6.89,2.36-11.52s2.27-8.9,2.27-11.35c0-6.26-3.54-10.16-9.89-10.16-6.62,0-11.07,3.45-15.15,10.43l-5.45,25.87c-.45,2.09-1.27,2.81-2.72,2.81H234c-1.54,0-2.9-.63-2.45-2.81Z" transform="translate(-11.37 -34.33)"/><path class="cls-24" d="M288.9,55.38c.45-2.09,1.27-2.81,2.72-2.81h.73c1.54,0,2.9.64,2.45,2.81L288.08,87c-.91,4.27-.09,5.81,4.36,5.81.09,0,.36,4.08-4.27,4.08-5.35,0-7.35-3.44-6-9.8Zm2.63-16.33c0-2.36,1.36-4.63,4.17-4.63,2.63,0,4,1.09,4,3,0,2.36-1.37,4.63-4.18,4.63C292.89,42.05,291.53,41,291.53,39.05Z" transform="translate(-11.37 -34.33)"/><path class="cls-24" d="M309.05,58.2h-3.72c-1.72,0-2.63-.46-2.63-1.45a5.61,5.61,0,0,1,1.09-3.18,2.82,2.82,0,0,1,2.18-.64h4.17l.91-4.26c.91-4.45,2.36-6.08,4.81-6.08a3.77,3.77,0,0,1,2.27.73L316,52.93h10.89c1.72,0,2.63.46,2.63,1.45a5.54,5.54,0,0,1-1.09,3.18,2.82,2.82,0,0,1-2.18.64H315l-5,23.32c-1.63,7.71.64,10.61,5.54,10.61a8.4,8.4,0,0,0,6-2.63c.19-.18,1.37,1.09,1.37,2.73A3.86,3.86,0,0,1,321.58,95c-1.27,1.27-3.72,2.18-7,2.18-8.08,0-12.62-5.27-10.44-15.7Z" transform="translate(-11.37 -34.33)"/><path class="cls-24" d="M355.17,51.85c7.17,0,12.89,3.81,15.24,9.16l.55-2.36c.91-4.45,2.27-6.08,4.72-6.08a3.94,3.94,0,0,1,2.27.72L370.78,87c-.91,4.27-.09,5.72,3.9,5.81.09,0,.46,4.08-4.09,4.08-4.89,0-6.89-3.26-5.89-8.89A19.7,19.7,0,0,1,348,97.22c-9.35,0-17.33-6.36-17.33-18.33C330.67,65.55,340.92,51.85,355.17,51.85Zm-6.44,40.2c9.07,0,16.88-7.72,18.69-16.61L369,68.27C367,61.37,362.25,57,354.81,57c-11.35,0-18.15,11.43-18.15,21.78C336.66,87.24,342.19,92.05,348.73,92.05Z" transform="translate(-11.37 -34.33)"/><path class="cls-24" d="M393.4,37.14c.45-2.08,1.27-2.81,2.72-2.81h.73c1.54,0,2.9.64,2.45,2.81l-7.54,35.4,25.69-20.69a3,3,0,0,1,2.72,3c0,1.36-1,2.72-3.18,4.45L398.21,74.17l7.71,11.34c4,6,5.17,6.36,9.35,6.54a4.06,4.06,0,0,1-4.36,4.8c-3.63,0-5.17-1.45-10.7-9.8L391.49,73.9l-4.17,19.78c-.45,2.09-1.27,2.81-2.72,2.81h-.73c-1.54,0-2.9-.63-2.45-2.81Z" transform="translate(-11.37 -34.33)"/><path class="cls-24" d="M448.32,51.85c9.71,0,15.43,4.62,15.43,11.43,0,8.62-5.72,13.79-25.14,13.79-3.35,0-7-.18-11.43-.54-.09.9-.09,1.81-.09,2.72,0,7.62,4.44,12.88,13,12.88,6.72,0,11.07-2.44,14.61-7.16.18-.28,3.09.63,3.09,2.81,0,1.36-.46,2.27-2,3.81-3.81,3.81-8.8,5.63-15.88,5.63-12.25,0-18.78-7.44-18.78-17.61C421.1,64,432.89,51.85,448.32,51.85ZM438.07,72.08c15.61,0,19.69-4.17,19.69-8.71,0-3.18-3.18-6.35-9.71-6.35-9.07,0-16.61,6.26-19.6,14.52A76.47,76.47,0,0,0,438.07,72.08Z" transform="translate(-11.37 -34.33)"/><path class="cls-24" d="M475.11,52.84a2.07,2.07,0,0,1,1.28-.27c2.26,0,4.26,1.09,3.27,6.26l-.37,1.73c3-5.72,6.8-8.71,12.16-8.71,3.36,0,6.26,1.54,6.26,4.08,0,2.9-2.18,4.08-2.36,3.9a7.26,7.26,0,0,0-5.62-2.36c-7,0-11.71,8.9-14.25,21L472.3,93.68c-.45,2.09-1.27,2.81-2.72,2.81h-.72c-1.55,0-2.91-.63-2.46-2.81Z" transform="translate(-11.37 -34.33)"/><path class="cls-24" d="M493.19,88.87a4.47,4.47,0,0,1,3.36-1.18c2.72,0,4.36,1.18,4.36,3.09,0,2.17-.46,3.72-1.46,4.71a4.43,4.43,0,0,1-3.35,1.18c-2.73,0-4.36-1.18-4.36-3.08C491.74,91.41,492.19,89.87,493.19,88.87Z" transform="translate(-11.37 -34.33)"/><path class="cls-24" d="M520.15,55.38c.46-2.09,1.28-2.81,2.73-2.81h.72c1.55,0,2.91.64,2.45,2.81L519.34,87c-.91,4.27-.09,5.81,4.35,5.81.09,0,.37,4.08-4.26,4.08-5.36,0-7.35-3.44-6-9.8Zm2.63-16.33c0-2.36,1.37-4.63,4.18-4.63,2.63,0,4,1.09,4,3,0,2.36-1.36,4.63-4.17,4.63C524.15,42.05,522.78,41,522.78,39.05Z" transform="translate(-11.37 -34.33)"/><path class="cls-24" d="M11.37,72.89c0-2.16.89-3.92,4.12-5.49L49.7,50.94c.29-.1,2,1.27,2.06,3.13.1,1.47-.79,2.94-4.22,4.61L17.94,72.6,40.58,85.73c3.24,1.86,4,3.53,3.83,5-.3,2.06-2,3.23-2.36,2.94L13.73,76.81A4.43,4.43,0,0,1,11.37,72.89Z" transform="translate(-11.37 -34.33)"/><path class="cls-24" d="M585,90.53c-.1-1.47.78-2.94,4.21-4.61L618.82,72,596.18,58.87c-3.24-1.86-4-3.53-3.82-5,.29-2.06,2-3.24,2.35-2.94L623,67.79a4.42,4.42,0,0,1,2.35,3.92c0,2.16-.88,3.92-4.11,5.49L587.06,93.67C586.77,93.76,585.1,92.4,585,90.53Z" transform="translate(-11.37 -34.33)"/></g></svg>